# xmcd CD database file
#
# Track frame offsets:
#	150
#	20885
#	39578
#	67573
#	86250
#	103773
#	122458
#	143400
#	162975
#	178591
#	199492
#	222247
#	233545
#	251308
#
# Disc length: 3725 seconds
#
# Revision: 1
# Processed by: cddbd v1.5.2PL0 Copyright (c) Steve Scherf et al.
# Submitted via: CDex 1.70beta3
#
DISCID=b10e8b0e
DTITLE=The Answer - Solas
DYEAR=2016
DGENRE=Hard Rock
TTITLE0=Solas
TTITLE1=Beautiful World
TTITLE2=Battle Cry
TTITLE3=Untrue Colour
TTITLE4=In This Land
TTITLE5=Thief Of Light
TTITLE6=Being Begotten
TTITLE7=Left Me Standing
TTITLE8=Demon Driven Man
TTITLE9=Real Life Dreamers
TTITLE10=Tunnel
TTITLE11=In This Land (Acoustic)
TTITLE12=Light In Darkness (Demo)
TTITLE13=Money (Bonus Track)
EXTD=YEAR: 2016
EXTT0=
EXTT1=
EXTT2=
EXTT3=
EXTT4=
EXTT5=
EXTT6=
EXTT7=
EXTT8=
EXTT9=
EXTT10=
EXTT11=
EXTT12=
EXTT13=
PLAYORDER=
